<?xml version="1.0" encoding="UTF-8" standalone="no"?>
<svg
   xmlns:dc="http://purl.org/dc/elements/1.1/"
   xmlns:cc="http://creativecommons.org/ns#"
   xmlns:rdf="http://www.w3.org/1999/02/22-rdf-syntax-ns#"
   xmlns:svg="http://www.w3.org/2000/svg"
   xmlns="http://www.w3.org/2000/svg"
   xmlns:sodipodi="http://sodipodi.sourceforge.net/DTD/sodipodi-0.dtd"
   xmlns:inkscape="http://www.inkscape.org/namespaces/inkscape"
   height="512pt"
   viewBox="0 0 512 512"
   width="512pt"
   version="1.1"
   id="svg32"
   sodipodi:docname="placeholder.svg"
   inkscape:version="0.92.3 (2405546, 2018-03-11)">
  <sodipodi:namedview
     pagecolor="#ffffff"
     bordercolor="#666666"
     borderopacity="1"
     objecttolerance="10"
     gridtolerance="10"
     guidetolerance="10"
     inkscape:pageopacity="0"
     inkscape:pageshadow="2"
     inkscape:window-width="732"
     inkscape:window-height="480"
     id="namedview34"
     showgrid="false"
     inkscape:zoom="0.34570313"
     inkscape:cx="341.33333"
     inkscape:cy="341.33333"
     inkscape:window-x="0"
     inkscape:window-y="28"
     inkscape:window-maximized="0"
     inkscape:current-layer="svg32" />
  <metadata
     id="metadata38">
    <rdf:RDF>
      <cc:Work
         rdf:about="">
        <dc:format>image/svg+xml</dc:format>
        <dc:type
           rdf:resource="http://purl.org/dc/dcmitype/StillImage" />
      </cc:Work>
    </rdf:RDF>
  </metadata>
  <defs
     id="defs36" />
  <path
     id="path2"
     fill="#848484"
     d="m512 256c0 141.386719-114.613281 256-256 256s-256-114.613281-256-256 114.613281-256 256-256 256 114.613281 256 256zm0 0" />
  <path
     id="path4"
     fill="#686868"
     d="m204.210938 422.398438 87.15625 87.15625c124.644531-17.226563 220.632812-124.171876 220.632812-253.554688 0-1.398438-.03125-2.789062-.054688-4.183594l-151.867187-151.867187zm0 0" />
  <path
     id="path6"
     fill="#5a5a5a"
     d="m415.667969 221.03125c0 141.023438-159.667969 241.605469-159.667969 241.605469s-159.667969-99.957031-159.667969-241.605469c0-88.179688 71.484375-159.667969 159.667969-159.667969s159.667969 71.484375 159.667969 159.667969zm0 0" />
  <path
     id="path8"
     fill="#353535"
     d="m256 61.363281v401.273438s159.667969-100.582031 159.667969-241.605469c0-88.183594-71.484375-159.667969-159.667969-159.667969zm0 0" />
  <path
     id="path10"
     fill="#7f7f7f"
     d="m340.386719 292.011719h-40.558594v-118.140625h40.558594c24.269531 0 44.015625 19.742187 44.015625 44.015625v30.109375c0 24.273437-19.746094 44.015625-44.015625 44.015625zm-17.316407-23.238281h17.316407c11.457031 0 20.773437-9.320313 20.773437-20.777344v-30.109375c0-11.457031-9.316406-20.777344-20.773437-20.777344h-17.316407zm0 0" />
  <path
     id="path12"
     fill="#7f7f7f"
     d="m309.25 336.558594h-104.058594c-13.695312 0-24.796875-11.101563-24.796875-24.796875v-152.09375h153.652344v152.09375c0 13.695312-11.101563 24.796875-24.796875 24.796875zm0 0" />
  <g
     id="g22"
     fill="#7f7f7f">
    <path
       id="path14"
       d="m256.070312 159.667969v176.890625h53.179688c13.695312 0 24.796875-11.101563 24.796875-24.796875v-152.09375zm0 0" />
    <path
       id="path16"
       d="m201.054688 177.097656h20.011718v139.449219h-20.011718zm0 0" />
    <path
       id="path18"
       d="m246.570312 177.097656h20.011719v139.449219h-20.011719zm0 0" />
    <path
       id="path20"
       d="m246.570312 177.097656h19.5v139.449219h-19.5zm0 0" />
  </g>
  <path
     id="path24"
     fill="#7f7f7f"
     d="m256.070312 177.097656h10v139.449219h-10zm0 0" />
  <path
     id="path26"
     fill="#7f7f7f"
     d="m291.4375 177.097656h20.011719v139.449219h-20.011719zm0 0" />
  <path
     id="path28"
     fill="#ffffff"
     d="m318.550781 119.640625c-5.945312 0-11.546875 1.457031-16.484375 4.019531-10.039062-14.332031-26.664062-23.710937-45.492187-23.710937-18.664063 0-35.167969 9.222656-45.234375 23.347656-4.757813-2.339844-10.113282-3.65625-15.773438-3.65625-19.789062 0-35.828125 16.042969-35.828125 35.828125 0 19.789062 16.039063 35.832031 35.828125 35.832031 5.664063 0 11.015625-1.320312 15.773438-3.65625 10.066406 14.125 26.570312 23.347657 45.234375 23.347657 18.828125 0 35.453125-9.378907 45.492187-23.710938 4.9375 2.5625 10.539063 4.019531 16.484375 4.019531 19.789063 0 35.832031-16.042969 35.832031-35.832031 0-19.785156-16.042968-35.828125-35.832031-35.828125zm0 0" />
  <path
     id="path30"
     fill="#e3e3e3"
     d="m318.554688 119.640625c-5.949219 0-11.550782 1.457031-16.484376 4.019531-10.042968-14.332031-26.667968-23.710937-45.496093-23.710937-.167969 0-.335938.015625-.503907.015625v111.011718c.167969 0 .335938.015626.503907.015626 18.828125 0 35.453125-9.378907 45.496093-23.710938 4.933594 2.5625 10.535157 4.019531 16.484376 4.019531 19.789062 0 35.828124-16.039062 35.828124-35.828125 0-19.789062-16.042968-35.832031-35.828124-35.832031zm0 0" />
</svg>
