<svg height="512pt" viewBox="0 0 512 512" width="512pt" xmlns="http://www.w3.org/2000/svg"><path d="m512 256c0 141.386719-114.613281 256-256 256s-256-114.613281-256-256 114.613281-256 256-256 256 114.613281 256 256zm0 0" fill="#fa5d0f"/><path d="m204.210938 422.398438 87.15625 87.15625c124.644531-17.226563 220.632812-124.171876 220.632812-253.554688 0-1.398438-.03125-2.789062-.054688-4.183594l-151.867187-151.867187zm0 0" fill="#d13400"/><path d="m415.667969 221.03125c0 141.023438-159.667969 241.605469-159.667969 241.605469s-159.667969-99.957031-159.667969-241.605469c0-88.179688 71.484375-159.667969 159.667969-159.667969s159.667969 71.484375 159.667969 159.667969zm0 0" fill="#5a5a5a"/><path d="m256 61.363281v401.273438s159.667969-100.582031 159.667969-241.605469c0-88.183594-71.484375-159.667969-159.667969-159.667969zm0 0" fill="#353535"/><path d="m340.386719 292.011719h-40.558594v-118.140625h40.558594c24.269531 0 44.015625 19.742187 44.015625 44.015625v30.109375c0 24.273437-19.746094 44.015625-44.015625 44.015625zm-17.316407-23.238281h17.316407c11.457031 0 20.773437-9.320313 20.773437-20.777344v-30.109375c0-11.457031-9.316406-20.777344-20.773437-20.777344h-17.316407zm0 0" fill="#ffb000"/><path d="m309.25 336.558594h-104.058594c-13.695312 0-24.796875-11.101563-24.796875-24.796875v-152.09375h153.652344v152.09375c0 13.695312-11.101563 24.796875-24.796875 24.796875zm0 0" fill="#ffda00"/><g fill="#ffc200"><path d="m256.070312 159.667969v176.890625h53.179688c13.695312 0 24.796875-11.101563 24.796875-24.796875v-152.09375zm0 0"/><path d="m201.054688 177.097656h20.011718v139.449219h-20.011718zm0 0"/><path d="m246.570312 177.097656h20.011719v139.449219h-20.011719zm0 0"/><path d="m246.570312 177.097656h19.5v139.449219h-19.5zm0 0"/></g><path d="m256.070312 177.097656h10v139.449219h-10zm0 0" fill="#ffb000"/><path d="m291.4375 177.097656h20.011719v139.449219h-20.011719zm0 0" fill="#ffb000"/><path d="m318.550781 119.640625c-5.945312 0-11.546875 1.457031-16.484375 4.019531-10.039062-14.332031-26.664062-23.710937-45.492187-23.710937-18.664063 0-35.167969 9.222656-45.234375 23.347656-4.757813-2.339844-10.113282-3.65625-15.773438-3.65625-19.789062 0-35.828125 16.042969-35.828125 35.828125 0 19.789062 16.039063 35.832031 35.828125 35.832031 5.664063 0 11.015625-1.320312 15.773438-3.65625 10.066406 14.125 26.570312 23.347657 45.234375 23.347657 18.828125 0 35.453125-9.378907 45.492187-23.710938 4.9375 2.5625 10.539063 4.019531 16.484375 4.019531 19.789063 0 35.832031-16.042969 35.832031-35.832031 0-19.785156-16.042968-35.828125-35.832031-35.828125zm0 0" fill="#fff"/><path d="m318.554688 119.640625c-5.949219 0-11.550782 1.457031-16.484376 4.019531-10.042968-14.332031-26.667968-23.710937-45.496093-23.710937-.167969 0-.335938.015625-.503907.015625v111.011718c.167969 0 .335938.015626.503907.015626 18.828125 0 35.453125-9.378907 45.496093-23.710938 4.933594 2.5625 10.535157 4.019531 16.484376 4.019531 19.789062 0 35.828124-16.039062 35.828124-35.828125 0-19.789062-16.042968-35.832031-35.828124-35.832031zm0 0" fill="#dce1eb"/></svg>